<svg
  xmlns:svg="http://www.w3.org/2000/svg"
  xmlns="http://www.w3.org/2000/svg"
  version="1.1"
  width="314.4"
  height="70"
  preserveAspectRatio="xMinYMin meet"
  viewBox="0 0 314.4 70">
  <path d
    ="m0 1.6 17.1 0 16.8 39.4 16.9-39.4 17 0-28.7 66.7-10.7 0L0 1.6zm75.7 0 16.7 0 0 66.7-16.7 0 0-66.7zm24.8 0 17.1 0 16.8 39.4 16.9-39.4 17 0-28.7 66.7-10.7 0-28.5-66.7zm75.7 0 16.7 0 0 66.7-16.7 0 0-66.7zm28 0 14.5 0 0 8.5C220.2 6.8 222.2 4.3 224.8 2.6 227.4 0.9 230.2 0 233.2 0c2.2 0 4.4 0.6 6.8 1.7l-5.2 14.5c-1.9-1-3.6-1.5-4.8-1.5-2.6 0-4.7 1.6-6.5 4.8-1.8 3.2-2.7 9.4-2.7 18.7l0.1 3.2 0 26.9-16.7 0 0-66.7zm93.5 0 16.7 0 0 66.7-16.7 0 0-7.1c-3.3 3.1-6.6 5.3-9.8 6.7C284.5 69.3 280.9 70 277.1 70c-8.7 0-16.1-3.3-22.4-10-6.3-6.7-9.4-15-9.4-24.9 0-10.3 3.1-18.7 9.2-25.3C260.5 3.3 267.9 0 276.6 0c4 0 7.8 0.8 11.3 2.2 3.5 1.5 6.8 3.7 9.8 6.7l0-7.3zM280.1 15.3c-5.2 0-9.5 1.8-12.9 5.5-3.4 3.6-5.2 8.3-5.2 14.1 0 5.8 1.7 10.5 5.2 14.2 3.5 3.7 7.8 5.6 12.9 5.6 5.3 0 9.6-1.8 13.1-5.5 3.5-3.6 5.2-8.4 5.2-14.4 0-5.8-1.7-10.5-5.2-14.1-3.5-3.6-7.9-5.4-13.2-5.4z" fill="#005ccc"/>
</svg>