<svg
   xmlns="http://www.w3.org/2000/svg"
   version="1.1"
   width="100"
   height="25"
   viewBox="0 0 2822.2222 705.55554">
 <g
   transform="translate(-35558.969,-14274.352)">
  <g>
    <rect
     width="2822.2222"
     height="705.55554"
     x="35558.969"
     y="14274.352"
     style="fill:none;stroke:none" /><path
     d="m 35629.524,14342.581 146.127,0 143.237,335.826 144.484,-335.826 144.881,0 -244.886,569.097 -91.111,0 -242.732,-569.097 z m 645.701,0 142.557,0 0,569.097 -142.557,0 0,-569.097 z m 211.286,0 146.127,0 143.238,335.826 144.484,-335.826 144.88,0 -244.886,569.097 -91.109,0 -242.734,-569.097 z m 645.702,0 142.558,0 0,569.097 -142.558,0 0,-569.097 z m 238.653,0 123.237,0 0,72.355 c 13.201,-28.217 30.71,-49.634 52.524,-64.31 21.984,-14.618 45.896,-21.984 71.788,-21.984 18.415,0 37.68,4.817 57.851,14.675 l -44.308,123.237 c -16.602,-8.386 -30.371,-12.522 -41.08,-12.522 -21.813,0 -40.342,13.598 -55.356,40.74 -15.185,27.139 -22.664,80.4 -22.664,159.667 l 0.509,27.707 0,229.532 -142.557,0 0,-569.097 z m 797.212,0 142.557,0 0,569.097 -142.557,0 0,-60.571 c -27.877,26.461 -55.923,45.386 -83.971,57 -28.046,11.616 -58.587,17.509 -91.28,17.509 -73.772,0 -137.345,-28.387 -191.115,-85.387 -53.771,-56.831 -80.571,-127.542 -80.571,-212.023 0,-87.711 26.063,-159.499 78.077,-215.593 51.958,-55.923 115.021,-83.971 189.36,-83.971 34.279,0 66.292,6.46 96.265,19.094 30.03,12.693 57.681,31.958 83.235,57.342 l 0,-62.497 z m -150.206,116.834 c -44.309,0 -81.082,15.524 -110.205,46.8 -29.293,31.108 -43.969,71.11 -43.969,119.837 0,49.125 14.846,89.468 44.649,121.311 29.803,31.615 66.462,47.538 110.033,47.538 44.82,0 82.159,-15.525 111.622,-46.802 29.634,-31.106 44.478,-71.958 44.478,-122.557 0,-49.463 -14.844,-89.466 -44.478,-120.233 -29.463,-30.539 -66.974,-45.894 -112.188,-45.894 z"
     style="fill:#005ccc;fill-opacity:1"/>
   </g>
 </g>
</svg>