<svg xmlns="http://www.w3.org/2000/svg" version="1.1" width="100" height="25" viewBox="0 0 2822.2222 705.55554"><style>.style0{fill:	none;}.style1{fill:	#005ccc;}</style><g transform="translate(-35558.969,-14274.352)"><g><rect width="2822.2" height="705.6" x="35559" y="14274.4" class="style0"/><path d="m 35629.5 14342.6 146.1 0 143.2 335.8 144.5 -335.8 144.9 0 -244.9 569.1 -91.1 0 -242.7 -569.1 z m 645.7 0 142.6 0 0 569.1 -142.6 0 0 -569.1 z m 211.3 0 146.1 0 143.2 335.8 144.5 -335.8 144.9 0 -244.9 569.1 -91.1 0 -242.7 -569.1 z m 645.7 0 142.6 0 0 569.1 -142.6 0 0 -569.1 z m 238.7 0 123.2 0 0 72.4 c 13.2 -28.2 30.7 -49.6 52.5 -64.3 22 -14.6 45.9 -22 71.8 -22 18.4 0 37.7 4.8 57.9 14.7 l -44.3 123.2 c -16.6 -8.4 -30.4 -12.5 -41.1 -12.5 -21.8 0 -40.3 13.6 -55.4 40.7 -15.2 27.1 -22.7 80.4 -22.7 159.7 l 0.5 27.7 0 229.5 -142.6 0 0 -569.1 z m 797.2 0 142.6 0 0 569.1 -142.6 0 0 -60.6 c -27.9 26.5 -55.9 45.4 -84 57 -28 11.6 -58.6 17.5 -91.3 17.5 -73.8 0 -137.3 -28.4 -191.1 -85.4 -53.8 -56.8 -80.6 -127.5 -80.6 -212 0 -87.7 26.1 -159.5 78.1 -215.6 52 -55.9 115 -84 189.4 -84 34.3 0 66.3 6.5 96.3 19.1 30 12.7 57.7 32 83.2 57.3 l 0 -62.5 z m -150.2 116.8 c -44.3 0 -81.1 15.5 -110.2 46.8 -29.3 31.1 -44 71.1 -44 119.8 0 49.1 14.8 89.5 44.6 121.3 29.8 31.6 66.5 47.5 110 47.5 44.8 0 82.2 -15.5 111.6 -46.8 29.6 -31.1 44.5 -72 44.5 -122.6 0 -49.5 -14.8 -89.5 -44.5 -120.2 -29.5 -30.5 -67 -45.9 -112.2 -45.9 z" class="style1"/></g></g></svg>