<?xml version="1.0" encoding="UTF-8" standalone="no"?>
<svg
   xmlns:dc="http://purl.org/dc/elements/1.1/"
   xmlns:cc="http://creativecommons.org/ns#"
   xmlns:rdf="http://www.w3.org/1999/02/22-rdf-syntax-ns#"
   xmlns:svg="http://www.w3.org/2000/svg"
   xmlns="http://www.w3.org/2000/svg"
   xmlns:sodipodi="http://sodipodi.sourceforge.net/DTD/sodipodi-0.dtd"
   xmlns:inkscape="http://www.inkscape.org/namespaces/inkscape"
   version="1.1"
   width="314.38181"
   height="70"
   id="svg3069"
   inkscape:version="0.48.2 r9819"
   sodipodi:docname="logo.svg">
  <metadata
     id="metadata3083">
    <rdf:RDF>
      <cc:Work
         rdf:about="">
        <dc:format>image/svg+xml</dc:format>
        <dc:type
           rdf:resource="http://purl.org/dc/dcmitype/StillImage" />
      </cc:Work>
    </rdf:RDF>
  </metadata>
  <defs
     id="defs3081" />
  <sodipodi:namedview
     pagecolor="#ffffff"
     bordercolor="#666666"
     borderopacity="1"
     objecttolerance="10"
     gridtolerance="10"
     guidetolerance="10"
     inkscape:pageopacity="0"
     inkscape:pageshadow="2"
     inkscape:window-width="1350"
     inkscape:window-height="785"
     id="namedview3079"
     showgrid="false"
     fit-margin-top="0"
     fit-margin-left="0"
     fit-margin-right="0"
     fit-margin-bottom="0"
     inkscape:zoom="3.1553987"
     inkscape:cx="157.19091"
     inkscape:cy="35"
     inkscape:window-x="39"
     inkscape:window-y="0"
     inkscape:window-maximized="0"
     inkscape:current-layer="svg3069" />
  <path
     d="m 0,1.6345 17.13457,0 16.79568,39.3783 16.94192,-39.3783 16.98846,0 -28.71485,66.7312 -10.6835,0 L 0,1.6345 z m 75.71363,0 16.71596,0 0,66.7312 -16.71596,0 0,-66.7312 z m 24.77498,0 17.13457,0 16.79581,39.3783 16.94191,-39.3783 16.98834,0 -28.71485,66.7312 -10.68326,0 -28.46252,-66.7312 z m 75.71375,0 16.71608,0 0,66.7312 -16.71608,0 0,-66.7312 z m 27.98399,0 14.45053,0 0,8.4842 C 220.1848,6.81 222.23787,4.2987 224.79574,2.5778 227.37354,0.8637 230.17741,0 233.21346,0 c 2.1593,0 4.41828,0.5648 6.78349,1.7208 l -5.19547,14.4505 c -1.94672,-0.9833 -3.56124,-1.4683 -4.81696,-1.4683 -2.55775,0 -4.73042,1.5945 -6.49093,4.7771 -1.78057,3.1822 -2.65754,9.4275 -2.65754,18.7222 l 0.0597,3.2489 0,26.9145 -16.71595,0 0,-66.7312 z m 93.47951,0 16.71596,0 0,66.7312 -16.71596,0 0,-7.1025 c -3.2688,3.1028 -6.55742,5.3219 -9.84627,6.6837 C 284.53097,69.309 280.94979,70 277.11627,70 c -8.65036,0 -16.1048,-3.3286 -22.40977,-10.0123 -6.30508,-6.6639 -9.44759,-14.9553 -9.44759,-24.8614 0,-10.2848 3.05609,-18.7026 9.15515,-25.28 C 260.50655,3.2889 267.9012,0 276.61804,0 c 4.01949,0 7.77327,0.7575 11.28785,2.2389 3.52126,1.4884 6.76356,3.7474 9.75997,6.7238 l 0,-7.3282 z M 280.053,15.3342 c -5.19559,0 -9.50752,1.8203 -12.92242,5.4877 -3.43484,3.6476 -5.15572,8.3382 -5.15572,14.0518 0,5.7603 1.74081,10.4909 5.23545,14.2247 3.49465,3.7071 7.79321,5.5742 12.90226,5.5742 5.2555,0 9.6338,-1.8204 13.08857,-5.4879 3.47483,-3.6474 5.21541,-8.4376 5.21541,-14.3708 0,-5.7999 -1.74058,-10.4906 -5.21541,-14.0983 -3.45477,-3.5809 -7.85324,-5.3814 -13.15494,-5.3814 z"
     style="fill:#005ccc;fill-opacity:1"
     id="path3077"
     inkscape:connector-curvature="0" />
</svg>
